<?xml version="1.0" encoding="UTF-8"?>
<svg id="Layer_2" data-name="Layer 2" xmlns="http://www.w3.org/2000/svg" viewBox="0 0 1444.17 139.43">
  <defs>
    <style>
      .cls-1 {
        fill: #c1097e;
      }
    </style>
  </defs>
  <g id="Layer_1-2" data-name="Layer 1">
    <g>
      <path class="cls-1" d="M0,132.46V6.87c0-1.53.29-2.58.86-3.15.57-.57,1.62-.86,3.15-.86h46.57c5.85,0,11.42.67,16.7,2,5.28,1.34,10.31,3.47,15.08,6.39,4.77,2.93,8.59,7.1,11.45,12.5,2.86,5.41,4.3,11.8,4.3,19.18,0,19.98-9.67,32.77-29.01,38.36l34.16,50.01c1.65,3.43.51,5.15-3.43,5.15h-14.12c-2.8,0-5.15-1.34-7.06-4.01l-33.02-48.86h-22.52v48.86c0,1.53-.29,2.58-.86,3.15-.57.57-1.62.86-3.15.86H4.01c-1.53,0-2.58-.25-3.15-.76-.57-.51-.86-1.59-.86-3.24M49.62,22.14h-26.53v42.18h26.53c17.43,0,26.15-7.12,26.15-21.38s-8.72-20.8-26.15-20.8"/>
      <path class="cls-1" d="M220.06,118.53c-13.36,13.62-29.46,20.42-48.29,20.42s-34.86-6.8-48.48-20.42c-13.36-13.49-20.04-29.78-20.04-48.86s6.68-35.37,20.04-48.86C136.91,7.19,153.07.38,171.77.38s34.93,6.81,48.29,20.42c13.48,13.49,20.23,29.77,20.23,48.86s-6.75,35.38-20.23,48.86M171.77,118.91c12.98,0,23.79-4.96,32.45-14.89,8.52-9.8,12.79-21.25,12.79-34.36s-4.26-24.68-12.79-34.35c-8.4-9.8-19.22-14.7-32.45-14.7s-23.92,4.96-32.45,14.89c-8.53,9.67-12.79,21.06-12.79,34.16s4.26,24.31,12.79,34.36c8.52,9.93,19.34,14.89,32.45,14.89"/>
      <path class="cls-1" d="M244.3,118.34l5.73-9.54c.89-1.91,1.91-2.86,3.05-2.86.64,0,1.46.32,2.48.95,11.71,7.63,24.88,11.45,39.51,11.45,19.34,0,29.01-6.36,29.01-19.09,0-6.11-2.61-10.59-7.83-13.46-5.22-2.86-14-5.12-26.34-6.78-11.96-1.53-21.95-4.58-29.97-9.16-9.67-5.6-14.51-14.69-14.51-27.29,0-9.41,3.5-18.39,10.5-26.91,8.27-9.93,21.18-14.89,38.75-14.89,9.29,0,17.37,1.21,24.24,3.63,6.74,2.16,14.32,5.79,22.71,10.88,2.03,1.14,2.35,2.99.96,5.54l-5.73,9.54c-1.02,1.91-2.1,2.86-3.24,2.86-.51,0-1.27-.32-2.29-.95-11.33-7.51-22.9-11.26-34.74-11.26-10.69,0-18.2,2.04-22.52,6.11-4.2,3.95-6.3,8.85-6.3,14.7,0,6.37,3.12,10.69,9.35,12.98,5.47,2.04,13.36,3.76,23.67,5.15,12.85,1.53,23.29,4.71,31.3,9.54,9.54,5.6,14.32,15.14,14.32,28.63,0,11.2-4.33,20.74-12.98,28.63-8.66,7.89-20.8,11.83-36.46,11.83-20.61,0-37.86-4.83-51.72-14.5-2.04-1.27-2.36-3.18-.95-5.73"/>
      <path class="cls-1" d="M342.6,132.46L407.11,3.82c.25-.38.64-.98,1.15-1.81.51-.83.89-1.37,1.14-1.62.25-.25.57-.38.95-.38h.57c1.02,0,2.16,1.27,3.43,3.82l64.51,128.64c.51,1.02.51,1.94,0,2.77-.51.83-1.34,1.24-2.48,1.24h-17.75c-2.29,0-4.07-1.34-5.34-4.01l-12.41-26.15h-60.31l-12.41,26.15c-.89,1.66-1.65,2.74-2.29,3.25-.64.51-1.66.76-3.05.76h-17.75c-1.15,0-1.97-.41-2.48-1.24-.51-.83-.51-1.75,0-2.77M410.55,39.13l-21.95,47.53h44.47l-22.14-47.53h-.38Z"/>
      <g>
        <path class="cls-1" d="M517.46,118.43l5.72-9.54c.89-1.91,1.91-2.86,3.06-2.86.64,0,1.46.32,2.48.95,11.7,7.64,24.88,11.45,39.51,11.45,19.34,0,29.01-6.36,29.01-19.09,0-6.11-2.61-10.59-7.83-13.46-5.22-2.86-14-5.12-26.34-6.78-11.96-1.53-21.95-4.58-29.97-9.16-9.67-5.6-14.5-14.69-14.5-27.29,0-9.41,3.5-18.39,10.5-26.91,8.27-9.93,21.18-14.89,38.75-14.89,9.29,0,17.37,1.21,24.24,3.63,6.74,2.16,14.32,5.79,22.71,10.88,2.03,1.15,2.35,2.99.96,5.54l-5.73,9.54c-1.02,1.91-2.1,2.86-3.24,2.86-.51,0-1.27-.32-2.29-.95-11.33-7.51-22.9-11.26-34.74-11.26-10.69,0-18.2,2.04-22.52,6.11-4.2,3.95-6.3,8.85-6.3,14.7,0,6.37,3.12,10.69,9.35,12.98,5.47,2.04,13.36,3.76,23.67,5.15,12.85,1.53,23.29,4.71,31.3,9.54,9.54,5.6,14.32,15.14,14.32,28.63,0,11.2-4.33,20.74-12.98,28.63-8.66,7.89-20.81,11.83-36.46,11.83-20.61,0-37.86-4.83-51.72-14.5-2.04-1.27-2.36-3.18-.95-5.73"/>
        <path class="cls-1" d="M630.26,132.56V6.97c0-1.53.29-2.58.86-3.15.57-.57,1.62-.86,3.15-.86h85.7c1.65,0,2.77.28,3.34.86.57.57.86,1.62.86,3.15v11.64c0,1.53-.29,2.58-.86,3.15-.57.57-1.69.86-3.34.86h-66.61v36.65h63.75c1.65,0,2.77.29,3.34.86.57.57.86,1.69.86,3.34v11.64c0,1.53-.29,2.58-.86,3.15-.57.57-1.69.86-3.34.86h-63.75v37.6h66.61c1.65,0,2.77.29,3.34.86.57.57.86,1.69.86,3.34v11.64c0,1.53-.29,2.58-.86,3.15-.57.57-1.69.86-3.34.86h-85.7c-1.65,0-2.74-.29-3.24-.86-.51-.57-.76-1.62-.76-3.15"/>
        <path class="cls-1" d="M736.76,132.56V6.97c0-1.53.29-2.58.86-3.15.57-.57,1.62-.86,3.15-.86h15.08c1.53,0,2.58.28,3.15.86.57.57.86,1.62.86,3.15v109.75h59.17c1.53,0,2.58.29,3.15.86.57.57.86,1.69.86,3.34v11.64c0,1.53-.29,2.58-.86,3.15-.57.57-1.62.86-3.15.86h-78.25c-1.53,0-2.58-.29-3.15-.86-.57-.57-.86-1.62-.86-3.15"/>
        <path class="cls-1" d="M871.71,139.43h-.57c-.38,0-.7-.1-.95-.29-.26-.19-.61-.7-1.05-1.53-.45-.83-.86-1.5-1.24-2L803.38,6.97c-.51-1.02-.51-1.94,0-2.77.51-.82,1.33-1.24,2.48-1.24h17.75c2.29,0,4.07,1.34,5.34,4.01l42.56,88.37v.19l42.56-88.56c1.27-2.67,3.05-4.01,5.34-4.01h17.75c1.15,0,1.97.45,2.48,1.34.51.89.51,1.78,0,2.67l-64.51,128.64c-.26.51-.57,1.05-.95,1.62-.38.57-.67.98-.86,1.24-.19.25-.42.48-.67.67-.26.19-.57.29-.95.29"/>
        <path class="cls-1" d="M910.64,132.56L975.16,3.91c.25-.38.64-.98,1.14-1.81.51-.83.89-1.36,1.15-1.62.25-.25.57-.38.95-.38h.57c1.02,0,2.16,1.27,3.43,3.82l64.51,128.64c.51,1.02.51,1.94,0,2.77-.51.83-1.34,1.24-2.48,1.24h-17.75c-2.29,0-4.07-1.34-5.34-4.01l-12.41-26.15h-60.31l-12.41,26.15c-.89,1.66-1.65,2.74-2.29,3.25-.64.51-1.65.76-3.05.76h-17.75c-1.15,0-1.97-.41-2.48-1.24-.51-.82-.51-1.75,0-2.77M978.59,39.22l-21.95,47.53h44.47l-22.14-47.53h-.38Z"/>
        <path class="cls-1" d="M1110.1,80.45v-11.64c0-1.65.29-2.73.86-3.24.57-.51,1.62-.76,3.15-.76h46.57c1.53,0,2.58.29,3.15.86.57.57.86,1.62.86,3.15v43.33c0,2.55-1.02,4.84-3.05,6.87-6.49,6.24-14.25,11.13-23.29,14.7-9.16,3.56-18.51,5.34-28.06,5.34-18.83,0-34.93-6.81-48.29-20.42-13.36-13.49-20.04-29.78-20.04-48.86s6.68-35.37,20.04-48.86c13.36-13.62,29.46-20.42,48.29-20.42,9.16,0,18.2,1.75,27.1,5.25,8.9,3.5,16.54,8.3,22.9,14.41,1.02,1.27,1.46,2.23,1.34,2.86-.13.64-.76,1.59-1.91,2.86l-8.78,9.54c-1.91,2.17-3.82,2.29-5.73.38-9.67-10.05-21.31-15.08-34.93-15.08s-23.73,4.96-32.26,14.89c-8.53,9.67-12.79,21.06-12.79,34.16s4.26,24.37,12.79,34.17c8.52,9.93,19.28,14.89,32.26,14.89,11.83,0,22.27-3.56,31.3-10.69v-23.67h-27.48c-1.53,0-2.58-.25-3.15-.76-.57-.51-.86-1.59-.86-3.24"/>
        <path class="cls-1" d="M1177.28,132.56V6.97c0-1.53.29-2.58.86-3.15.57-.57,1.62-.86,3.15-.86h85.7c1.65,0,2.77.28,3.34.86.57.57.86,1.62.86,3.15v11.64c0,1.53-.29,2.58-.86,3.15-.57.57-1.69.86-3.34.86h-66.61v36.65h63.75c1.65,0,2.77.29,3.34.86.57.57.86,1.69.86,3.34v11.64c0,1.53-.29,2.58-.86,3.15-.57.57-1.69.86-3.34.86h-63.75v37.6h66.61c1.65,0,2.77.29,3.34.86.57.57.86,1.69.86,3.34v11.64c0,1.53-.29,2.58-.86,3.15-.57.57-1.69.86-3.34.86h-85.7c-1.65,0-2.74-.29-3.24-.86-.51-.57-.76-1.62-.76-3.15"/>
        <path class="cls-1" d="M1278.05,132.56l16.03-130.36c.12-1.15.7-1.72,1.72-1.72h1.33c.89,0,1.65.57,2.29,1.72l61.65,103.07,61.65-103.07c.64-1.15,1.4-1.72,2.29-1.72h1.34c1.02,0,1.59.57,1.72,1.72l16.03,130.36c.38,2.67-.95,4.01-4.01,4.01h-15.08c-1.53,0-2.51-.25-2.96-.76-.45-.51-.8-1.59-1.05-3.25l-8.4-77.87-46.19,80.35c-1.91,2.67-3.37,4.01-4.39,4.01h-1.91c-1.15,0-2.61-1.34-4.39-4.01l-45.62-79.78-8.97,77.3c-.26,1.66-.64,2.74-1.14,3.25-.51.51-1.53.76-3.05.76h-15.08c-3.18,0-4.45-1.34-3.82-4.01"/>
      </g>
    </g>
  </g>
</svg>